<svg xmlns="http://www.w3.org/2000/svg" viewBox="0 0 167.27 206.31"><defs><style>.cls-1{fill:#fff;}.cls-2{fill:#00aeef;}</style></defs><title>Asset 1</title><g id="Layer_2" data-name="Layer 2"><g id="Layer_1-2" data-name="Layer 1"><path class="cls-1" d="M110.43,112.29a27.69,27.69,0,1,1,0-16.76H130a46.74,46.74,0,1,0,0,16.76Z"/><path class="cls-2" d="M83.86,168.69a64.78,64.78,0,1,1,64.22-73.16h19.19a83.9,83.9,0,0,0-55.61-70.72V0H92.36V20.51a83.82,83.82,0,0,0-17.42,0V0H55.63V25a83.85,83.85,0,0,0,0,157.9v23.45H74.94v-19a83.82,83.82,0,0,0,17.42,0v19h19.3V183a83.9,83.9,0,0,0,55.61-70.72H148.08A64.87,64.87,0,0,1,83.86,168.69Z"/></g></g></svg>