<svg xmlns="http://www.w3.org/2000/svg" width="920.44072" height="206.30957" viewBox="0 0 920.44072 206.30957">
  <title>CC_Logo_Full_Color_Dark_bg</title>
  <g>
    <g>
      <path d="M222.561,123.37817a66.88784,66.88784,0,0,1-2.58985-19.58984A66.89244,66.89244,0,0,1,222.561,84.19849a39.54308,39.54308,0,0,1,6.67382-13.44727,32.95231,32.95231,0,0,1,9.86133-8.168,39.08981,39.08981,0,0,1,11.28906-4.21679A62.8772,62.8772,0,0,1,262.272,57.304a74.27277,74.27277,0,0,1,27.49219,5.3789V77.9563a61.62234,61.62234,0,0,0-26.03125-5.97656,43.32275,43.32275,0,0,0-10.459,1.0957,23.85508,23.85508,0,0,0-8.5,4.2168q-4.15063,3.12231-6.3086,9.76172a54.97265,54.97265,0,0,0-2.1582,16.73437,54.964,54.964,0,0,0,2.1582,16.73438q2.157,6.64086,6.3086,9.76171a23.83886,23.83886,0,0,0,8.5,4.2168,43.32275,43.32275,0,0,0,10.459,1.0957,61.62234,61.62234,0,0,0,26.03125-5.97656v15.207a73.479,73.479,0,0,1-27.49219,5.44532,62.878,62.878,0,0,1-11.88672-1.0625,39.03307,39.03307,0,0,1-11.28906-4.2168,32.92322,32.92322,0,0,1-9.86133-8.168A39.525,39.525,0,0,1,222.561,123.37817Z" fill="#fff"/>
      <path d="M304.28125,118.46411V81.343h16.33594v39.21679q0,8.14966,3.32763,11.72608,3.32741,3.57642,10.8501,3.57666,7.65454,0,10.98194-3.57666,3.32739-3.57642,3.32861-11.72608V81.343h16.33594v37.12109q0,14.94141-8.10254,23.375-8.10279,8.43384-22.54395,8.4336-14.44189,0-22.47754-8.4336Q304.28052,133.40674,304.28125,118.46411Z" fill="#fff"/>
      <path d="M382.314,149.21021V87.385q1.65894-.78956,4.582-1.875a113.51635,113.51635,0,0,1,11.7539-3.09082,84.7673,84.7673,0,0,1,17.53125-2.13867V94.29224a66.32793,66.32793,0,0,0-17.53125,2.26318v52.65479Z" fill="#fff"/>
      <path d="M427.44092,149.21021V87.385q1.65894-.78956,4.582-1.875a113.516,113.516,0,0,1,11.75391-3.09082,84.76713,84.76713,0,0,1,17.53125-2.13867V94.29224a66.32782,66.32782,0,0,0-17.53125,2.26318v52.65479Z" fill="#fff"/>
      <path d="M470.11084,116.00708q0-16.33593,7.27148-26.09766t23.07618-9.76171q14.9414,0,22.61132,9.49609,7.66994,9.49731,7.66993,23.375,0,5.71215-.26758,8.43359H486.44678q.66283,8.83228,5.27929,11.82032,4.615,2.98827,11.98633,2.98828a53.71029,53.71029,0,0,0,23.10938-5.2461v13.14844a52.84,52.84,0,0,1-25.56641,6.10938,47.13243,47.13243,0,0,1-8.5-.73047,27.88779,27.88779,0,0,1-8.2583-3.05469,25.90248,25.90248,0,0,1-7.35352-5.91016,27.87,27.87,0,0,1-5.05615-9.92773A49.25858,49.25858,0,0,1,470.11084,116.00708Zm16.33594-5.84375h27.35937a23.47671,23.47671,0,0,0-4.15039-11.79248,11.20551,11.20551,0,0,0-9.5957-4.80908q-6.11059,0-9.5293,3.91992Q487.10962,101.40235,486.44678,110.16333Z" fill="#fff"/>
      <path d="M543.22949,149.21021V87.718a69.05362,69.05362,0,0,1,31.14453-7.4375q14.20678,0,22.21094,7.40429,8.00244,7.40553,8.00391,20.752v40.77344H588.25293v-42.168a17.5988,17.5988,0,0,0-.49805-4.54883,11.54791,11.54791,0,0,0-1.99218-3.81836,9.06356,9.06356,0,0,0-4.88086-2.98828,31.53537,31.53537,0,0,0-8.69922-.9961A71.3059,71.3059,0,0,0,559.56543,95.886v53.32422Z" fill="#fff"/>
      <path d="M615.48223,95.35474V81.343H626.9041V61.22192H643.24V81.343h16.07031V95.35474H643.24v33.46875q0,4.38281,1.82617,5.91015,1.82594,1.52857,6.47461,1.52735a19.45357,19.45357,0,0,0,7.76953-1.46094v13.48047a26.84186,26.84186,0,0,1-10.42578,1.99219h-.332q-10.095,0-15.87109-5.97657-5.77736-5.97656-5.77735-16.46875V95.35474Z" fill="#fff"/>
      <path d="M675.84551,123.37817a66.88817,66.88817,0,0,1-2.58985-19.58984,66.89278,66.89278,0,0,1,2.58985-19.58984,39.5429,39.5429,0,0,1,6.67383-13.44727,32.95215,32.95215,0,0,1,9.86132-8.168,39.08986,39.08986,0,0,1,11.28907-4.21679,62.87713,62.87713,0,0,1,11.88672-1.0625,74.27272,74.27272,0,0,1,27.49218,5.3789V77.9563a61.62234,61.62234,0,0,0-26.03125-5.97656,43.32275,43.32275,0,0,0-10.459,1.0957,23.85516,23.85516,0,0,0-8.5,4.2168q-4.15064,3.12231-6.3086,9.76172a54.97265,54.97265,0,0,0-2.1582,16.73437,54.964,54.964,0,0,0,2.1582,16.73438q2.157,6.64086,6.3086,9.76171a23.83894,23.83894,0,0,0,8.5,4.2168,43.32275,43.32275,0,0,0,10.459,1.0957,61.62234,61.62234,0,0,0,26.03125-5.97656v15.207a73.47891,73.47891,0,0,1-27.49218,5.44532,62.878,62.878,0,0,1-11.88672-1.0625,39.03313,39.03313,0,0,1-11.28907-4.2168,32.92306,32.92306,0,0,1-9.86132-8.168A39.5248,39.5248,0,0,1,675.84551,123.37817Z" fill="#00aeef"/>
      <path d="M759.85479,141.24146q-8.302-9.03-8.30079-25.89844,0-16.86695,8.30079-25.89844,8.30053-9.03,23.80664-9.03125,15.50463,0,23.80664,9.03125,8.30053,9.0315,8.30078,25.89844,0,16.8684-8.30078,25.89844-8.302,9.03149-23.80664,9.03125Q768.15532,150.27271,759.85479,141.24146Zm11.91992-42.96485q-3.88478,4.44946-3.88477,17.09961,0,12.65038,3.88477,17.06641,3.88476,4.41723,11.91992,4.416,8.03394,0,11.88672-4.416,3.85033-4.41577,3.85156-17.06641,0-12.65039-3.85156-17.09961-3.85181-4.448-11.88672-4.44922Q775.65924,93.82739,771.77471,98.27661Z" fill="#00aeef"/>
      <path d="M826.53447,72.11255V57.17114h16.73438V72.11255Zm.26563,77.09766V81.343H843.136v67.86719Z" fill="#00aeef"/>
      <path d="M859.08135,149.21021V87.718a69.05359,69.05359,0,0,1,31.14453-7.4375q14.20679,0,22.21094,7.40429,8.00244,7.40553,8.0039,20.752v40.77344H904.10479v-42.168a17.5988,17.5988,0,0,0-.49805-4.54883,11.548,11.548,0,0,0-1.99219-3.81836,9.06352,9.06352,0,0,0-4.88086-2.98828,31.53527,31.53527,0,0,0-8.69922-.9961A71.30579,71.30579,0,0,0,875.41729,95.886v53.32422Z" fill="#00aeef"/>
    </g>
    <g>
      <path d="M110.40323,112.293a27.68873,27.68873,0,1,1,.00032-16.76676H129.97a46.74223,46.74223,0,1,0,0,16.76676Z" fill="#fff"/>
      <path d="M83.833,168.68994a64.78028,64.78028,0,1,1,64.21948-73.16382h19.19507a83.89875,83.89875,0,0,0-55.61231-70.71557V0H92.33252V20.51147a83.448,83.448,0,0,0-17.41773.04175V0H55.61206V24.95923a83.84758,83.84758,0,0,0,0,157.90088v23.44946H74.91479v-19.0437a83.42489,83.42489,0,0,0,17.41773.042v19.00171h19.30273v-23.301A83.89888,83.89888,0,0,0,167.24756,112.293H148.05249A64.86358,64.86358,0,0,1,83.833,168.68994Z" fill="#00aeef"/>
    </g>
  </g>
</svg>
